<svg xmlns="http://www.w3.org/2000/svg" preserveAspectRatio="xMidYMid" width="16.031" height="16.03" viewBox="0 0 16.031 16.03">
	<path d="M15.928 12.784l-.08-.242c-.189-.561-.807-1.146-1.375-1.299l-2.102-.575c-.57-.154-1.383.054-1.8.471l-.761.759a8.064 8.064 0 0 1-5.678-5.679l.76-.76c.417-.417.626-1.23.471-1.801L4.79 1.556C4.634.986 4.049.368 3.489.182l-.24-.081c-.56-.187-1.36.002-1.777.419L.334 1.66c-.203.2-.333.78-.333.781a13.446 13.446 0 0 0 3.932 9.653 13.441 13.441 0 0 0 9.62 3.934c.019 0 .614-.127.817-.329l1.138-1.139c.417-.418.606-1.218.42-1.776z" class="cls-1"/>
</svg>